<?xml version="1.0" encoding="utf-8"?>
<!-- Generator: Adobe Illustrator 24.3.0, SVG Export Plug-In . SVG Version: 6.00 Build 0)  -->
<svg version="1.1" id="Capa_1" xmlns="http://www.w3.org/2000/svg" xmlns:xlink="http://www.w3.org/1999/xlink" x="0px" y="0px"
	 viewBox="0 0 32 32" style="enable-background:new 0 0 32 32;" xml:space="preserve">
<style type="text/css">
	.st0{fill:#353D40;}
	.st1{fill:#FFFFFF;}
</style>
<circle class="st0" cx="16" cy="16" r="15.6"/>
<g>
	<path class="st1" d="M15.6,17.1c0,0.5,0,0.9,0,1.4c0.7,0,1.4,0,2.2,0c0,0.1,0,0.1,0,0.2c-0.7,0-1.4,0-2.2,0c0,0.4,0,0.8-0.1,1.1
		c0,0-0.1,0-0.1,0c0-0.3,0-0.7-0.1-1.1c-1.9,0-3.9,0-5.8,0c0,0.4,0,0.7-0.1,1.1c-0.1,0-0.1,0-0.2,0c0-0.3,0-0.7,0-1.1
		c-2.1,0-4.2,0-6.2,0c0-0.1,0-0.1,0-0.2c2.1,0,4.1,0,6.2,0c0-0.5,0-0.9,0-1.3C9.2,17.2,9,17,8.8,17c-0.4,0-0.8,0-1.2,0
		c0-0.1,0-0.1,0-0.2c0.5,0,1,0,1.6,0c0-1.6,0-3,0-4.6c-0.8,0-1.5,0-2.2,0c0-0.1,0-0.1,0-0.2c7.3,0,14.7,0,22,0
		c-0.1,0.3-0.2,0.5-0.2,0.8c0,1.2,0,2.3,0,3.5c0,0.2,0.1,0.4,0.2,0.6c-0.1,0.2-0.2,0.4-0.2,0.6c0,0.7,0,1.5,0,2.3
		c-0.1,0-0.2,0-0.2,0c0-0.4,0-0.9,0-1.3c0-0.5,0-0.9,0-1.4c-1.9,0-3.7,0-5.6,0c0,0.9,0,1.8,0,2.6c-0.1,0-0.1,0-0.2,0
		c0-0.9,0-1.7,0-2.7C20.3,17.1,18,17.1,15.6,17.1z M15.6,12.3c0,1.5,0,3,0,4.4c1.5,0,2.9,0,4.4,0c0-0.6,0-1.2,0-1.8
		c0.9,0,1.8,0,2.6,0c0-0.9,0-1.8,0-2.6C20.3,12.3,18,12.3,15.6,12.3z M15.3,12.3c-2,0-3.9,0-5.8,0c0,1.5,0,2.9,0,4.4
		c2,0,3.9,0,5.8,0C15.3,15.3,15.3,13.8,15.3,12.3z M22.9,12.3c0,0.7,0,1.4,0,2c0,0.5,0.2,0.7,0.7,0.7c1.1,0,2.2,0,3.3,0
		c0,0.6,0,1.2,0,1.8c0.6,0,1.1,0,1.6,0c0-1.5,0-3,0-4.5C26.6,12.3,24.8,12.3,22.9,12.3z M15.4,17.1c-2,0-3.9,0-5.8,0
		c0,0.5,0,1,0,1.4c2,0,3.9,0,5.8,0C15.4,18,15.4,17.6,15.4,17.1z M22.9,15.1c0,0.2,0,0.4,0,0.6c0,1.2,0,1.2,1.1,1.2
		c0.9,0,1.8,0,2.7,0c0-0.6,0-1.2,0-1.7C25.5,15.1,24.2,15.1,22.9,15.1z M20.1,16.8c0.9,0,1.7,0,2.5,0c0-0.5,0-1.1,0-1.7
		c-0.8,0-1.7,0-2.5,0C20.1,15.7,20.1,16.2,20.1,16.8z"/>
</g>
</svg>
