<svg id="Capa_1" data-name="Capa 1" xmlns="http://www.w3.org/2000/svg" xmlns:xlink="http://www.w3.org/1999/xlink" viewBox="0 0 792 612"><defs><style>.cls-1{fill:none;}.cls-2{fill:#a1a5a6;}.cls-3{clip-path:url(#clip-path);}.cls-4{clip-path:url(#clip-path-2);}.cls-5{opacity:0.85;}.cls-6{fill:#d9d9d9;}.cls-7{fill:#f2b138;}.cls-8{fill:#003f63;}.cls-9{font-size:68.09px;font-family:Young;letter-spacing:0.15em;}.cls-10,.cls-11,.cls-9{fill:#fff;}.cls-10,.cls-11{stroke:#fff;stroke-miterlimit:10;}.cls-10{stroke-width:11px;}.cls-11{stroke-width:3px;}</style><clipPath id="clip-path"><rect class="cls-1" y="632.82" width="792" height="612"/></clipPath><clipPath id="clip-path-2"><rect class="cls-1" x="-34.67" y="612" width="826.67" height="667.92"/></clipPath></defs><rect class="cls-2" width="792" height="612"/><g class="cls-3"><g class="cls-4"><g class="cls-5"><polygon class="cls-6" points="467.05 1559.55 275.61 1631.17 -66.03 632.81 125.41 561.19 467.05 1559.55"/><polygon class="cls-2" points="654.88 1489.27 463.44 1560.89 121.81 562.54 313.25 490.92 654.88 1489.27"/><polygon class="cls-7" points="846.32 1417.65 654.88 1489.27 313.25 490.92 504.69 419.29 846.32 1417.65"/><polygon class="cls-8" points="1037.76 1346.03 846.32 1417.65 504.69 419.29 696.12 347.67 1037.76 1346.03"/></g></g></g><text class="cls-9" transform="translate(81.08 379.47)">MODERNIZARQ</text><path class="cls-10" d="M277.32,197.45l277.67.43"/><path class="cls-10" d="M216,280.42,405,280"/><line class="cls-10" x1="297.39" y1="198.12" x2="297.39" y2="258.89"/><line class="cls-10" x1="375.3" y1="198.12" x2="375.3" y2="258.89"/><line class="cls-10" x1="468.79" y1="284.86" x2="468.79" y2="197.6"/><line class="cls-10" x1="279.73" y1="258.37" x2="555.01" y2="259.24"/><line class="cls-10" x1="540.98" y1="284.86" x2="540.98" y2="198.12"/><line class="cls-11" x1="346.47" y1="198.12" x2="346.47" y2="258.89"/><line class="cls-11" x1="421.26" y1="198.12" x2="421.26" y2="258.89"/><line class="cls-11" x1="505.92" y1="197.6" x2="505.92" y2="258.37"/><line class="cls-10" x1="450.09" y1="182.02" x2="505.66" y2="182.02"/></svg>